<?xml version="1.0" encoding="utf-8"?>
<!-- Generator: Adobe Illustrator 27.0.0, SVG Export Plug-In . SVG Version: 6.00 Build 0)  -->
<svg version="1.1" id="Ebene_1" xmlns="http://www.w3.org/2000/svg" xmlns:xlink="http://www.w3.org/1999/xlink" x="0px" y="0px"
	 viewBox="0 0 283.5 127.4" style="enable-background:new 0 0 283.5 127.4;" xml:space="preserve">
<style type="text/css">
	.st0{fill-opacity:0;stroke:#000000;stroke-width:0.5;}
</style>
<g id="Layer_1">
	<g>
		<path d="M92.9,100.6c0.5,0.1,1,0.7,1.5,1.1c0.3,0.2,0.9,0.8,1.1,0.9l0.8,0.6l0.7,0.6l1.1,0.8l1.1,0.8l1.2,0.8l1.2,0.7l1.2,0.7
			l1.2,0.7l1.2,0.7l1.2,0.7l1.2,0.7l1.2,0.6l1.2,0.6l1.2,0.6l1.2,0.6l1.3,0.6l1.3,0.5l1.3,0.5l1.3,0.5l1.3,0.5l1.3,0.5l1.3,0.4
			l1.3,0.4l1.3,0.4l2,0.6l2.6,0.7l2.6,0.6l2.6,0.6l2.6,0.5l2.6,0.4l2.6,0.3l2.6,0.3l2.6,0.2l1.9,0.1l1.3,0l1.3,0l1.3,0l1.3,0l1.3,0
			l1.3-0.1l1.3-0.1l1.2-0.1l1.2-0.1l1.2-0.1l1.2-0.2l1.2-0.2l1.2-0.2l1.2-0.2l1.2-0.2l1.2-0.2l1.2-0.3l1.1-0.3l1.1-0.3l1.1-0.3
			l1.1-0.3l0.5-0.2l0.6-0.2l1.2-0.4l1.2-0.4l1.2-0.4l1.1-0.4l1.1-0.4l1.1-0.4l1.1-0.4l1-0.4l1-0.4l1-0.4l1-0.4l1.4-0.7l1.9-0.9
			l1.8-0.9l1.7-1l1.7-1l1.7-1.1l1.7-1.1l1.7-1.1l1.7-1.2l1.7-1.3l0.2-0.2c0.9-0.7,1.4-1.2,2.3-1.5c2-0.6,3.3,0.9,2.5,2.2
			c-0.4,0.8-0.9,1.2-1.8,2.1l-1,0.7l-1.9,1.4l-1.9,1.4l-1.9,1.3l-2,1.3l-2,1.2l-2,1.2l-2.1,1.2l-2.1,1.1l-2.1,1.1l-1.6,0.8l-1.1,0.5
			l-1.1,0.5l-1.2,0.5l-1.2,0.5l-1.2,0.5l-1.2,0.5l-1.2,0.5l-1.2,0.5l-1.3,0.4l-1.3,0.4l-1.3,0.4l-0.6,0.2c0,0,0,0,0,0l-0.7,0.2
			l-1.3,0.4l-1.3,0.4l-1.3,0.3l-1.3,0.3l-1.3,0.3l-1.3,0.3l-1.3,0.2l-1.3,0.2l-1.3,0.2l-1.3,0.2l-1.3,0.2l-1.3,0.1l-1.3,0.1
			l-1.3,0.1l-1.3,0.1l-1.3,0.1l-1.4,0l-1.4,0l-1.4,0l-1.4,0l-1.4,0l-2.1-0.1l-2.7-0.2l-2.7-0.3l-2.7-0.3l-2.7-0.4l-2.7-0.5l-2.7-0.6
			l-2.7-0.7l-2.7-0.7l-2-0.6l-1.3-0.4l-1.3-0.4l-1.3-0.5l-1.3-0.5l-1.3-0.5l-1.3-0.5l-1.3-0.5l-1.3-0.6l-1.3-0.6l-1.3-0.6l-1.3-0.6
			l-1.3-0.6l-1.3-0.7l-1.2-0.7l-1.2-0.7l-1.2-0.7l-1.2-0.7l-1.2-0.7l-1.2-0.8l-1.2-0.8l-1.2-0.8l-1.2-0.8l-1.1-0.8
			c-0.2-0.1,0,0-0.3-0.2l-0.3-0.2l-0.1-0.1c-1-0.6-1.3-1.6-1-2.5c0.7-2.1,2.4-3.3,3-3.9C91.6,101.1,92.4,100.5,92.9,100.6z"/>
		<path d="M32.6,59.4h3.1v31.1h-3.1V59.4z"/>
		<path d="M98.6,59.4h6.2c3.6,0,5.9,0.2,7.2,0.5c1.8,0.4,3.2,1.3,4.4,2.7c1.1,1.4,1.7,3.1,1.7,5.1c0,2.1-0.5,3.8-1.6,5.1
			c-1.1,1.3-2.6,2.3-4.5,2.7c-1.4,0.3-4,0.5-7.9,0.5h-2.2v14.5h-3.1V59.4z M101.7,62.4V73l5.3,0.1c2.1,0,3.7-0.2,4.7-0.6
			c1-0.4,1.8-1,2.3-1.9c0.6-0.9,0.8-1.8,0.8-2.9c0-1-0.3-2-0.8-2.9c-0.6-0.9-1.3-1.5-2.2-1.8c-0.9-0.4-2.4-0.5-4.5-0.5H101.7z"/>
		<path d="M132.3,59.4h3.1v28.1h11.9v3h-15.1V59.4z"/>
		<path d="M173,59.4l14.5,31.1h-3.3l-4.9-10.2h-13.4L161,90.5h-3.5l14.7-31.1H173z M172.6,66l-5.3,11.3h10.6L172.6,66z"/>
		<path d="M200.4,90.5V59.4h0.7l20.7,23.8V59.4h3.1v31.1h-0.7L203.6,67v23.5H200.4z"/>
		<path d="M237.3,62.4v-3h17.1v3h-6.9v28.1h-3.2V62.4H237.3z"/>
		<path d="M69.6,1h4.8v42.7h18.1v4.6H69.6V1z"/>
		<path d="M120.8,1h27.1v4.7h-22.3v14.8h22.2v4.6h-22.2v18.5h22.2v4.7h-26.9V1z"/>
		<path d="M196.2,1l22,47.2h-5.1l-7.4-15.5h-20.4L178,48.3h-5.3L195,1H196.2z M195.6,11.1l-8.1,17.1h16.1L195.6,11.1z"/>
		<path d="M246.4,48.3V1h1l31.4,36.1V1h4.7v47.2h-1.1l-31.1-35.7v35.7H246.4z"/>
		<g>
			<path class="st0" d="M44.1,23.7c0,10.8-8.8,19.6-19.6,19.6C14.4,45.2,2.9,34.6,2.9,23.7S14.1,2,24.5,4.1
				C35.3,4.1,44.1,12.9,44.1,23.7z"/>
			<path d="M24.3,0c4.2,0,8,0.8,11.4,2.5l0.1,0.1l-2.3,3.9l-0.2-0.1c-2.7-1.3-5.8-2-9-2c-3.6,0-6.9,0.9-10,2.6
				c-3.1,1.7-5.4,4-7.1,6.9c-1.7,2.9-2.5,6.2-2.5,9.8c0,5.5,1.9,10.1,5.6,13.7c3.8,3.7,8.5,5.5,14.2,5.5c3,0,6-0.6,8.7-1.9l2.2,3.8
				c-3.5,1.7-7.3,2.2-11.2,2.3c-7.9,0-14.1-2.6-18.6-7.9C1.9,34.9,0,29.6,0,23.3c0-6.6,2.3-12.1,6.9-16.6C11.5,2.2,17.3,0,24.3,0z"
				/>
		</g>
		<path d="M53.4,90.5v-31h0.8L67,74.1l13-14.7l0.8,0v31h-3.3l0-23.5L67.1,78.7l-0.2,0L56.5,67l0.1,23.5H53.4z"/>
	</g>
</g>
</svg>
